<mxfile host="app.diagrams.net" modified="2024-06-22T01:46:54.988Z" agent="Mozilla/5.0 (Windows NT 10.0; Win64; x64) AppleWebKit/537.36 (KHTML, like Gecko) Chrome/126.0.0.0 Safari/537.36" etag="tW42fPsrC0lMY_k-NO91" version="24.6.0" type="device">
  <diagram name="Page-1" id="CaEfUG8QsgtGvWu8mydP">
    <mxGraphModel dx="758" dy="737" grid="1" gridSize="10" guides="0" tooltips="1" connect="1" arrows="1" fold="1" page="1" pageScale="1" pageWidth="850" pageHeight="1100" background="#0A0A0A" math="0" shadow="0">
      <root>
        <mxCell id="0" />
        <mxCell id="1" style="" parent="0" />
        <mxCell id="UQGTS-67XtDg3RFHlaop-1" value="" style="rounded=0;whiteSpace=wrap;html=1;fillColor=#0A0A0A;" parent="1" vertex="1">
          <mxGeometry x="150" y="10" width="480" height="760" as="geometry" />
        </mxCell>
        <mxCell id="UQGTS-67XtDg3RFHlaop-2" value="" style="rounded=0;whiteSpace=wrap;html=1;fillColor=#000000;strokeColor=#FFFFFF;" parent="1" vertex="1">
          <mxGeometry x="160" y="20" width="460" height="60" as="geometry" />
        </mxCell>
        <mxCell id="UQGTS-67XtDg3RFHlaop-6" style="edgeStyle=orthogonalEdgeStyle;rounded=0;orthogonalLoop=1;jettySize=auto;html=1;exitX=1;exitY=0.5;exitDx=0;exitDy=0;" parent="1" source="UQGTS-67XtDg3RFHlaop-3" target="UQGTS-67XtDg3RFHlaop-2" edge="1">
          <mxGeometry relative="1" as="geometry" />
        </mxCell>
        <mxCell id="UQGTS-67XtDg3RFHlaop-3" value="" style="rounded=0;whiteSpace=wrap;html=1;fillColor=#000000;fillStyle=solid;strokeColor=#FFFFFF;" parent="1" vertex="1">
          <mxGeometry x="160" y="20" width="120" height="60" as="geometry" />
        </mxCell>
        <mxCell id="UQGTS-67XtDg3RFHlaop-4" value="" style="shape=mxgraph.sysml.x;" parent="1" vertex="1">
          <mxGeometry x="400" y="360" width="40" height="40" as="geometry" />
        </mxCell>
        <mxCell id="UQGTS-67XtDg3RFHlaop-5" value="" style="shape=mxgraph.sysml.x;strokeColor=#FFFFFF;" parent="1" vertex="1">
          <mxGeometry x="160" y="20" width="120" height="60" as="geometry" />
        </mxCell>
        <mxCell id="UQGTS-67XtDg3RFHlaop-8" value="Untitled Layer" parent="0" />
        <mxCell id="UQGTS-67XtDg3RFHlaop-9" value="Home" style="text;strokeColor=none;align=center;fillColor=none;html=1;verticalAlign=middle;whiteSpace=wrap;rounded=0;fontColor=#FFFFFF;" parent="UQGTS-67XtDg3RFHlaop-8" vertex="1">
          <mxGeometry x="330" y="40" width="60" height="20" as="geometry" />
        </mxCell>
        <mxCell id="UQGTS-67XtDg3RFHlaop-10" value="Menu" style="text;strokeColor=none;align=center;fillColor=none;html=1;verticalAlign=middle;whiteSpace=wrap;rounded=0;fontColor=#FFFFFF;" parent="UQGTS-67XtDg3RFHlaop-8" vertex="1">
          <mxGeometry x="430" y="40" width="60" height="20" as="geometry" />
        </mxCell>
        <mxCell id="UQGTS-67XtDg3RFHlaop-11" value="Our Story" style="text;strokeColor=none;align=center;fillColor=none;html=1;verticalAlign=middle;whiteSpace=wrap;rounded=0;fontColor=#FFFFFF;" parent="UQGTS-67XtDg3RFHlaop-8" vertex="1">
          <mxGeometry x="530" y="40" width="60" height="20" as="geometry" />
        </mxCell>
        <mxCell id="8uq8H44b24_80MELF-kE-1" value="a" style="rounded=0;whiteSpace=wrap;html=1;fillColor=#000000;strokeColor=#FFFFFF;" vertex="1" parent="UQGTS-67XtDg3RFHlaop-8">
          <mxGeometry x="170" y="160" width="440" height="140" as="geometry" />
        </mxCell>
        <mxCell id="8uq8H44b24_80MELF-kE-2" value="&lt;font size=&quot;1&quot; color=&quot;#ffffff&quot;&gt;&lt;b style=&quot;font-size: 19px;&quot;&gt;Title&lt;/b&gt;&lt;/font&gt;" style="text;strokeColor=none;align=center;fillColor=none;html=1;verticalAlign=middle;whiteSpace=wrap;rounded=0;" vertex="1" parent="UQGTS-67XtDg3RFHlaop-8">
          <mxGeometry x="270" y="100" width="240" height="50" as="geometry" />
        </mxCell>
        <mxCell id="8uq8H44b24_80MELF-kE-4" value="" style="shape=mxgraph.sysml.x;" vertex="1" parent="UQGTS-67XtDg3RFHlaop-8">
          <mxGeometry x="360" y="170" width="40" height="40" as="geometry" />
        </mxCell>
        <mxCell id="8uq8H44b24_80MELF-kE-5" value="" style="shape=mxgraph.sysml.x;fillColor=#FFFFFF;strokeColor=#FFFFFF;" vertex="1" parent="UQGTS-67XtDg3RFHlaop-8">
          <mxGeometry x="170" y="160" width="440" height="140" as="geometry" />
        </mxCell>
        <mxCell id="8uq8H44b24_80MELF-kE-6" value="a" style="rounded=0;whiteSpace=wrap;html=1;fillColor=#000000;strokeColor=#FFFFFF;" vertex="1" parent="UQGTS-67XtDg3RFHlaop-8">
          <mxGeometry x="170" y="320" width="170" height="160" as="geometry" />
        </mxCell>
        <mxCell id="8uq8H44b24_80MELF-kE-8" value="" style="shape=mxgraph.sysml.x;strokeColor=#FFFFFF;" vertex="1" parent="UQGTS-67XtDg3RFHlaop-8">
          <mxGeometry x="170" y="320" width="170" height="160" as="geometry" />
        </mxCell>
        <mxCell id="8uq8H44b24_80MELF-kE-9" value="&lt;div style=&quot;&quot;&gt;&lt;span style=&quot;color: rgb(255, 255, 255); background-color: initial;&quot;&gt;Lorem ipsum dolor sit amet, consectetur adipiscing elit, sed do eiusmod&amp;nbsp;&lt;/span&gt;&lt;span style=&quot;background-color: initial; color: rgb(255, 255, 255);&quot;&gt;tempor incididunt ut labore et dolore magna aliqua. Ut enim ad minim&amp;nbsp;&lt;/span&gt;&lt;span style=&quot;background-color: initial; color: rgb(255, 255, 255);&quot;&gt;veniam, quis nostrud exercitation ullamco laboris nisi ut aliquip ex ea&amp;nbsp;&lt;/span&gt;&lt;span style=&quot;background-color: initial; color: rgb(255, 255, 255);&quot;&gt;commodo consequat. Duis aute irure dolor in reprehenderit in voluptate&amp;nbsp;&lt;/span&gt;&lt;span style=&quot;background-color: initial; color: rgb(255, 255, 255);&quot;&gt;velit esse cillum dolore eu fugiat nulla pariatur. Excepteur sint&amp;nbsp;&lt;/span&gt;&lt;span style=&quot;background-color: initial; color: rgb(255, 255, 255);&quot;&gt;occaecat cupidatat non proident, sunt in culpa qui officia deserunt&amp;nbsp;&lt;/span&gt;&lt;span style=&quot;background-color: initial; color: rgb(255, 255, 255);&quot;&gt;mollit anim id est laborum&lt;/span&gt;&lt;/div&gt;" style="text;strokeColor=none;align=left;fillColor=none;html=1;verticalAlign=middle;whiteSpace=wrap;rounded=0;" vertex="1" parent="UQGTS-67XtDg3RFHlaop-8">
          <mxGeometry x="350" y="330" width="280" height="150" as="geometry" />
        </mxCell>
        <mxCell id="8uq8H44b24_80MELF-kE-10" value="&lt;font size=&quot;1&quot; color=&quot;#ffffff&quot;&gt;&lt;b style=&quot;font-size: 17px;&quot;&gt;Subtitle&lt;/b&gt;&lt;/font&gt;" style="text;strokeColor=none;align=center;fillColor=none;html=1;verticalAlign=middle;whiteSpace=wrap;rounded=0;" vertex="1" parent="UQGTS-67XtDg3RFHlaop-8">
          <mxGeometry x="270" y="500" width="240" height="50" as="geometry" />
        </mxCell>
        <mxCell id="8uq8H44b24_80MELF-kE-11" value="a" style="rounded=0;whiteSpace=wrap;html=1;fillColor=#000000;strokeColor=#FFFFFF;" vertex="1" parent="UQGTS-67XtDg3RFHlaop-8">
          <mxGeometry x="440" y="550" width="170" height="160" as="geometry" />
        </mxCell>
        <mxCell id="8uq8H44b24_80MELF-kE-13" value="" style="shape=mxgraph.sysml.x;strokeColor=#FFFFFF;" vertex="1" parent="UQGTS-67XtDg3RFHlaop-8">
          <mxGeometry x="440" y="550" width="170" height="160" as="geometry" />
        </mxCell>
        <mxCell id="8uq8H44b24_80MELF-kE-14" value="&lt;div style=&quot;&quot;&gt;&lt;span style=&quot;color: rgb(255, 255, 255); background-color: initial;&quot;&gt;Lorem ipsum dolor sit amet, consectetur adipiscing elit, sed do eiusmod&amp;nbsp;&lt;/span&gt;&lt;span style=&quot;background-color: initial; color: rgb(255, 255, 255);&quot;&gt;tempor incididunt ut labore et dolore magna aliqua. Ut enim ad minim&amp;nbsp;&lt;/span&gt;&lt;span style=&quot;background-color: initial; color: rgb(255, 255, 255);&quot;&gt;veniam, quis nostrud exercitation ullamco laboris nisi ut aliquip ex ea&amp;nbsp;&lt;/span&gt;&lt;span style=&quot;background-color: initial; color: rgb(255, 255, 255);&quot;&gt;commodo consequat. Duis aute irure dolor in reprehenderit in voluptate&amp;nbsp;&lt;/span&gt;&lt;span style=&quot;background-color: initial; color: rgb(255, 255, 255);&quot;&gt;velit esse cillum dolore eu fugiat nulla pariatur. Excepteur sint&amp;nbsp;&lt;/span&gt;&lt;span style=&quot;background-color: initial; color: rgb(255, 255, 255);&quot;&gt;occaecat cupidatat non proident, sunt in culpa qui officia deserunt&amp;nbsp;&lt;/span&gt;&lt;span style=&quot;background-color: initial; color: rgb(255, 255, 255);&quot;&gt;mollit anim id est laborum&lt;/span&gt;&lt;/div&gt;" style="text;strokeColor=none;align=left;fillColor=none;html=1;verticalAlign=middle;whiteSpace=wrap;rounded=0;" vertex="1" parent="UQGTS-67XtDg3RFHlaop-8">
          <mxGeometry x="160" y="550" width="280" height="150" as="geometry" />
        </mxCell>
        <mxCell id="8uq8H44b24_80MELF-kE-15" value="a" style="rounded=0;whiteSpace=wrap;html=1;fillColor=#000000;strokeColor=#FFFFFF;" vertex="1" parent="UQGTS-67XtDg3RFHlaop-8">
          <mxGeometry x="160" y="720" width="460" height="40" as="geometry" />
        </mxCell>
        <mxCell id="8uq8H44b24_80MELF-kE-18" value="" style="whiteSpace=wrap;html=1;aspect=fixed;strokeColor=#FFFFFF;fillColor=#000000;" vertex="1" parent="UQGTS-67XtDg3RFHlaop-8">
          <mxGeometry x="170" y="730" width="20" height="20" as="geometry" />
        </mxCell>
        <mxCell id="8uq8H44b24_80MELF-kE-19" value="" style="whiteSpace=wrap;html=1;aspect=fixed;strokeColor=#FFFFFF;fillColor=#000000;" vertex="1" parent="UQGTS-67XtDg3RFHlaop-8">
          <mxGeometry x="200" y="730" width="20" height="20" as="geometry" />
        </mxCell>
        <mxCell id="8uq8H44b24_80MELF-kE-20" value="" style="whiteSpace=wrap;html=1;aspect=fixed;strokeColor=#FFFFFF;fillColor=#000000;" vertex="1" parent="UQGTS-67XtDg3RFHlaop-8">
          <mxGeometry x="230" y="730" width="20" height="20" as="geometry" />
        </mxCell>
        <mxCell id="8uq8H44b24_80MELF-kE-22" value="" style="shape=mxgraph.sysml.x;strokeColor=#FFFFFF;" vertex="1" parent="UQGTS-67XtDg3RFHlaop-8">
          <mxGeometry x="200" y="730" width="20" height="20" as="geometry" />
        </mxCell>
        <mxCell id="8uq8H44b24_80MELF-kE-23" value="" style="shape=mxgraph.sysml.x;strokeColor=#FFFFFF;" vertex="1" parent="UQGTS-67XtDg3RFHlaop-8">
          <mxGeometry x="230" y="730" width="20" height="20" as="geometry" />
        </mxCell>
        <mxCell id="8uq8H44b24_80MELF-kE-24" value="" style="shape=mxgraph.sysml.x;strokeColor=#FFFFFF;" vertex="1" parent="UQGTS-67XtDg3RFHlaop-8">
          <mxGeometry x="170" y="730" width="20" height="20" as="geometry" />
        </mxCell>
        <mxCell id="8uq8H44b24_80MELF-kE-25" value="&lt;font color=&quot;#ffffff&quot;&gt;Amet et&lt;/font&gt;" style="text;strokeColor=none;align=center;fillColor=none;html=1;verticalAlign=middle;whiteSpace=wrap;rounded=0;" vertex="1" parent="UQGTS-67XtDg3RFHlaop-8">
          <mxGeometry x="280" y="730" width="60" height="20" as="geometry" />
        </mxCell>
        <mxCell id="8uq8H44b24_80MELF-kE-26" value="&lt;font color=&quot;#ffffff&quot;&gt;Dolor sit&lt;/font&gt;" style="text;strokeColor=none;align=center;fillColor=none;html=1;verticalAlign=middle;whiteSpace=wrap;rounded=0;" vertex="1" parent="UQGTS-67XtDg3RFHlaop-8">
          <mxGeometry x="370" y="730" width="60" height="20" as="geometry" />
        </mxCell>
        <mxCell id="8uq8H44b24_80MELF-kE-27" value="&lt;font color=&quot;#ffffff&quot;&gt;Lorem ipsum 2025&lt;/font&gt;" style="text;strokeColor=none;align=center;fillColor=none;html=1;verticalAlign=middle;whiteSpace=wrap;rounded=0;" vertex="1" parent="UQGTS-67XtDg3RFHlaop-8">
          <mxGeometry x="460" y="730" width="110" height="20" as="geometry" />
        </mxCell>
      </root>
    </mxGraphModel>
  </diagram>
</mxfile>
